# Blender 3.4.1
# www.blender.org
o Cylinder
v 0.000000 -0.025000 -0.112500
v 0.000000 0.025000 -0.112500
v 0.005520 -0.025000 -0.112364
v 0.005520 0.025000 -0.112364
v 0.011027 -0.025000 -0.111958
v 0.011027 0.025000 -0.111958
v 0.016507 -0.025000 -0.111282
v 0.016507 0.025000 -0.111282
v 0.021948 -0.025000 -0.110338
v 0.021948 0.025000 -0.110338
v 0.027335 -0.025000 -0.109129
v 0.027335 0.025000 -0.109129
v 0.032657 -0.025000 -0.107656
v 0.032657 0.025000 -0.107656
v 0.037900 -0.025000 -0.105924
v 0.037900 0.025000 -0.105924
v 0.043052 -0.025000 -0.103936
v 0.043052 0.025000 -0.103936
v 0.048100 -0.025000 -0.101699
v 0.048100 0.025000 -0.101699
v 0.053032 -0.025000 -0.099216
v 0.053032 0.025000 -0.099216
v 0.057837 -0.025000 -0.096494
v 0.057837 0.025000 -0.096494
v 0.062502 -0.025000 -0.093540
v 0.062502 0.025000 -0.093540
v 0.067016 -0.025000 -0.090361
v 0.067016 0.025000 -0.090361
v 0.071369 -0.025000 -0.086964
v 0.071369 0.025000 -0.086964
v 0.075550 -0.025000 -0.083357
v 0.075550 0.025000 -0.083357
v 0.079550 -0.025000 -0.079550
v 0.079550 0.025000 -0.079550
v 0.083357 -0.025000 -0.075550
v 0.083357 0.025000 -0.075550
v 0.086964 -0.025000 -0.071369
v 0.086964 0.025000 -0.071369
v 0.090361 -0.025000 -0.067016
v 0.090361 0.025000 -0.067016
v 0.093540 -0.025000 -0.062502
v 0.093540 0.025000 -0.062502
v 0.096494 -0.025000 -0.057837
v 0.096494 0.025000 -0.057837
v 0.099216 -0.025000 -0.053032
v 0.099216 0.025000 -0.053032
v 0.101699 -0.025000 -0.048100
v 0.101699 0.025000 -0.048100
v 0.103936 -0.025000 -0.043052
v 0.103936 0.025000 -0.043052
v 0.105924 -0.025000 -0.037900
v 0.105924 0.025000 -0.037900
v 0.107656 -0.025000 -0.032657
v 0.107656 0.025000 -0.032657
v 0.109129 -0.025000 -0.027335
v 0.109129 0.025000 -0.027335
v 0.110338 -0.025000 -0.021948
v 0.110338 0.025000 -0.021948
v 0.111282 -0.025000 -0.016507
v 0.111282 0.025000 -0.016507
v 0.111958 -0.025000 -0.011027
v 0.111958 0.025000 -0.011027
v 0.112364 -0.025000 -0.005520
v 0.112364 0.025000 -0.005520
v 0.112500 -0.025000 0.000000
v 0.112500 0.025000 0.000000
v 0.112364 -0.025000 0.005520
v 0.112364 0.025000 0.005520
v 0.111958 -0.025000 0.011027
v 0.111958 0.025000 0.011027
v 0.111282 -0.025000 0.016507
v 0.111282 0.025000 0.016507
v 0.110338 -0.025000 0.021948
v 0.110338 0.025000 0.021948
v 0.109129 -0.025000 0.027335
v 0.109129 0.025000 0.027335
v 0.107656 -0.025000 0.032657
v 0.107656 0.025000 0.032657
v 0.105924 -0.025000 0.037900
v 0.105924 0.025000 0.037900
v 0.103936 -0.025000 0.043052
v 0.103936 0.025000 0.043052
v 0.101699 -0.025000 0.048100
v 0.101699 0.025000 0.048100
v 0.099216 -0.025000 0.053032
v 0.099216 0.025000 0.053032
v 0.096494 -0.025000 0.057837
v 0.096494 0.025000 0.057837
v 0.093540 -0.025000 0.062502
v 0.093540 0.025000 0.062502
v 0.090361 -0.025000 0.067016
v 0.090361 0.025000 0.067016
v 0.086964 -0.025000 0.071369
v 0.086964 0.025000 0.071369
v 0.083357 -0.025000 0.075550
v 0.083357 0.025000 0.075550
v 0.079550 -0.025000 0.079550
v 0.079550 0.025000 0.079550
v 0.075550 -0.025000 0.083357
v 0.075550 0.025000 0.083357
v 0.071369 -0.025000 0.086964
v 0.071369 0.025000 0.086964
v 0.067016 -0.025000 0.090361
v 0.067016 0.025000 0.090361
v 0.062502 -0.025000 0.093540
v 0.062502 0.025000 0.093540
v 0.057837 -0.025000 0.096494
v 0.057837 0.025000 0.096494
v 0.053032 -0.025000 0.099216
v 0.053032 0.025000 0.099216
v 0.048100 -0.025000 0.101699
v 0.048100 0.025000 0.101699
v 0.043052 -0.025000 0.103936
v 0.043052 0.025000 0.103936
v 0.037900 -0.025000 0.105924
v 0.037900 0.025000 0.105924
v 0.032657 -0.025000 0.107656
v 0.032657 0.025000 0.107656
v 0.027335 -0.025000 0.109129
v 0.027335 0.025000 0.109129
v 0.021948 -0.025000 0.110338
v 0.021948 0.025000 0.110338
v 0.016507 -0.025000 0.111282
v 0.016507 0.025000 0.111282
v 0.011027 -0.025000 0.111958
v 0.011027 0.025000 0.111958
v 0.005520 -0.025000 0.112364
v 0.005520 0.025000 0.112364
v 0.000000 -0.025000 0.112500
v 0.000000 0.025000 0.112500
v -0.005520 -0.025000 0.112364
v -0.005520 0.025000 0.112364
v -0.011027 -0.025000 0.111958
v -0.011027 0.025000 0.111958
v -0.016507 -0.025000 0.111282
v -0.016507 0.025000 0.111282
v -0.021948 -0.025000 0.110338
v -0.021948 0.025000 0.110338
v -0.027335 -0.025000 0.109129
v -0.027335 0.025000 0.109129
v -0.032657 -0.025000 0.107656
v -0.032657 0.025000 0.107656
v -0.037900 -0.025000 0.105924
v -0.037900 0.025000 0.105924
v -0.043052 -0.025000 0.103936
v -0.043052 0.025000 0.103936
v -0.048100 -0.025000 0.101699
v -0.048100 0.025000 0.101699
v -0.053032 -0.025000 0.099216
v -0.053032 0.025000 0.099216
v -0.057837 -0.025000 0.096494
v -0.057837 0.025000 0.096494
v -0.062502 -0.025000 0.093540
v -0.062502 0.025000 0.093540
v -0.067016 -0.025000 0.090361
v -0.067016 0.025000 0.090361
v -0.071369 -0.025000 0.086964
v -0.071369 0.025000 0.086964
v -0.075550 -0.025000 0.083357
v -0.075550 0.025000 0.083357
v -0.079550 -0.025000 0.079550
v -0.079550 0.025000 0.079550
v -0.083357 -0.025000 0.075550
v -0.083357 0.025000 0.075550
v -0.086964 -0.025000 0.071369
v -0.086964 0.025000 0.071369
v -0.090361 -0.025000 0.067016
v -0.090361 0.025000 0.067016
v -0.093540 -0.025000 0.062502
v -0.093540 0.025000 0.062502
v -0.096494 -0.025000 0.057837
v -0.096494 0.025000 0.057837
v -0.099216 -0.025000 0.053032
v -0.099216 0.025000 0.053032
v -0.101699 -0.025000 0.048100
v -0.101699 0.025000 0.048100
v -0.103936 -0.025000 0.043052
v -0.103936 0.025000 0.043052
v -0.105924 -0.025000 0.037900
v -0.105924 0.025000 0.037900
v -0.107656 -0.025000 0.032657
v -0.107656 0.025000 0.032657
v -0.109129 -0.025000 0.027335
v -0.109129 0.025000 0.027335
v -0.110338 -0.025000 0.021948
v -0.110338 0.025000 0.021948
v -0.111282 -0.025000 0.016507
v -0.111282 0.025000 0.016507
v -0.111958 -0.025000 0.011027
v -0.111958 0.025000 0.011027
v -0.112364 -0.025000 0.005520
v -0.112364 0.025000 0.005520
v -0.112500 -0.025000 0.000000
v -0.112500 0.025000 0.000000
v -0.112364 -0.025000 -0.005520
v -0.112364 0.025000 -0.005520
v -0.111958 -0.025000 -0.011027
v -0.111958 0.025000 -0.011027
v -0.111282 -0.025000 -0.016507
v -0.111282 0.025000 -0.016507
v -0.110338 -0.025000 -0.021948
v -0.110338 0.025000 -0.021948
v -0.109129 -0.025000 -0.027335
v -0.109129 0.025000 -0.027335
v -0.107656 -0.025000 -0.032657
v -0.107656 0.025000 -0.032657
v -0.105924 -0.025000 -0.037900
v -0.105924 0.025000 -0.037900
v -0.103936 -0.025000 -0.043052
v -0.103936 0.025000 -0.043052
v -0.101699 -0.025000 -0.048100
v -0.101699 0.025000 -0.048100
v -0.099216 -0.025000 -0.053032
v -0.099216 0.025000 -0.053032
v -0.096494 -0.025000 -0.057837
v -0.096494 0.025000 -0.057837
v -0.093540 -0.025000 -0.062502
v -0.093540 0.025000 -0.062502
v -0.090361 -0.025000 -0.067016
v -0.090361 0.025000 -0.067016
v -0.086964 -0.025000 -0.071369
v -0.086964 0.025000 -0.071369
v -0.083357 -0.025000 -0.075550
v -0.083357 0.025000 -0.075550
v -0.079550 -0.025000 -0.079550
v -0.079550 0.025000 -0.079550
v -0.075550 -0.025000 -0.083357
v -0.075550 0.025000 -0.083357
v -0.071369 -0.025000 -0.086964
v -0.071369 0.025000 -0.086964
v -0.067016 -0.025000 -0.090361
v -0.067016 0.025000 -0.090361
v -0.062502 -0.025000 -0.093540
v -0.062502 0.025000 -0.093540
v -0.057837 -0.025000 -0.096494
v -0.057837 0.025000 -0.096494
v -0.053032 -0.025000 -0.099216
v -0.053032 0.025000 -0.099216
v -0.048100 -0.025000 -0.101699
v -0.048100 0.025000 -0.101699
v -0.043052 -0.025000 -0.103936
v -0.043052 0.025000 -0.103936
v -0.037900 -0.025000 -0.105924
v -0.037900 0.025000 -0.105924
v -0.032657 -0.025000 -0.107656
v -0.032657 0.025000 -0.107656
v -0.027335 -0.025000 -0.109129
v -0.027335 0.025000 -0.109129
v -0.021948 -0.025000 -0.110338
v -0.021948 0.025000 -0.110338
v -0.016507 -0.025000 -0.111282
v -0.016507 0.025000 -0.111282
v -0.011027 -0.025000 -0.111958
v -0.011027 0.025000 -0.111958
v -0.005520 -0.025000 -0.112364
v -0.005520 0.025000 -0.112364
vn 0.0245 -0.0000 -0.9997
vn 0.0736 -0.0000 -0.9973
vn 0.1224 -0.0000 -0.9925
vn 0.1710 -0.0000 -0.9853
vn 0.2191 -0.0000 -0.9757
vn 0.2667 -0.0000 -0.9638
vn 0.3137 -0.0000 -0.9495
vn 0.3599 -0.0000 -0.9330
vn 0.4052 -0.0000 -0.9142
vn 0.4496 -0.0000 -0.8932
vn 0.4929 -0.0000 -0.8701
vn 0.5350 -0.0000 -0.8449
vn 0.5758 -0.0000 -0.8176
vn 0.6152 -0.0000 -0.7883
vn 0.6532 -0.0000 -0.7572
vn 0.6895 -0.0000 -0.7242
vn 0.7242 -0.0000 -0.6895
vn 0.7572 -0.0000 -0.6532
vn 0.7883 -0.0000 -0.6152
vn 0.8176 -0.0000 -0.5758
vn 0.8449 -0.0000 -0.5350
vn 0.8701 -0.0000 -0.4929
vn 0.8932 -0.0000 -0.4496
vn 0.9142 -0.0000 -0.4052
vn 0.9330 -0.0000 -0.3599
vn 0.9495 -0.0000 -0.3137
vn 0.9638 -0.0000 -0.2667
vn 0.9757 -0.0000 -0.2191
vn 0.9853 -0.0000 -0.1710
vn 0.9925 -0.0000 -0.1224
vn 0.9973 -0.0000 -0.0736
vn 0.9997 -0.0000 -0.0245
vn 0.9997 -0.0000 0.0245
vn 0.9973 -0.0000 0.0736
vn 0.9925 -0.0000 0.1224
vn 0.9853 -0.0000 0.1710
vn 0.9757 -0.0000 0.2191
vn 0.9638 -0.0000 0.2667
vn 0.9495 -0.0000 0.3137
vn 0.9330 -0.0000 0.3599
vn 0.9142 -0.0000 0.4052
vn 0.8932 -0.0000 0.4496
vn 0.8701 -0.0000 0.4929
vn 0.8449 -0.0000 0.5350
vn 0.8176 -0.0000 0.5758
vn 0.7883 -0.0000 0.6152
vn 0.7572 -0.0000 0.6532
vn 0.7242 -0.0000 0.6895
vn 0.6895 -0.0000 0.7242
vn 0.6532 -0.0000 0.7572
vn 0.6152 -0.0000 0.7883
vn 0.5758 -0.0000 0.8176
vn 0.5350 -0.0000 0.8449
vn 0.4929 -0.0000 0.8701
vn 0.4496 -0.0000 0.8932
vn 0.4052 -0.0000 0.9142
vn 0.3599 -0.0000 0.9330
vn 0.3137 -0.0000 0.9495
vn 0.2667 -0.0000 0.9638
vn 0.2191 -0.0000 0.9757
vn 0.1710 -0.0000 0.9853
vn 0.1224 -0.0000 0.9925
vn 0.0736 -0.0000 0.9973
vn 0.0245 -0.0000 0.9997
vn -0.0245 -0.0000 0.9997
vn -0.0736 -0.0000 0.9973
vn -0.1224 -0.0000 0.9925
vn -0.1710 -0.0000 0.9853
vn -0.2191 -0.0000 0.9757
vn -0.2667 -0.0000 0.9638
vn -0.3137 -0.0000 0.9495
vn -0.3599 -0.0000 0.9330
vn -0.4052 -0.0000 0.9142
vn -0.4496 -0.0000 0.8932
vn -0.4929 -0.0000 0.8701
vn -0.5350 -0.0000 0.8449
vn -0.5758 -0.0000 0.8176
vn -0.6152 -0.0000 0.7883
vn -0.6532 -0.0000 0.7572
vn -0.6895 -0.0000 0.7242
vn -0.7242 -0.0000 0.6895
vn -0.7572 -0.0000 0.6532
vn -0.7883 -0.0000 0.6152
vn -0.8176 -0.0000 0.5758
vn -0.8449 -0.0000 0.5350
vn -0.8701 -0.0000 0.4929
vn -0.8932 -0.0000 0.4496
vn -0.9142 -0.0000 0.4052
vn -0.9330 -0.0000 0.3599
vn -0.9495 -0.0000 0.3137
vn -0.9638 -0.0000 0.2667
vn -0.9757 -0.0000 0.2191
vn -0.9853 -0.0000 0.1710
vn -0.9925 -0.0000 0.1224
vn -0.9973 -0.0000 0.0736
vn -0.9997 -0.0000 0.0245
vn -0.9997 -0.0000 -0.0245
vn -0.9973 -0.0000 -0.0736
vn -0.9925 -0.0000 -0.1224
vn -0.9853 -0.0000 -0.1710
vn -0.9757 -0.0000 -0.2191
vn -0.9638 -0.0000 -0.2667
vn -0.9495 -0.0000 -0.3137
vn -0.9330 -0.0000 -0.3599
vn -0.9142 -0.0000 -0.4052
vn -0.8932 -0.0000 -0.4496
vn -0.8701 -0.0000 -0.4929
vn -0.8449 -0.0000 -0.5350
vn -0.8176 -0.0000 -0.5758
vn -0.7883 -0.0000 -0.6152
vn -0.7572 -0.0000 -0.6532
vn -0.7242 -0.0000 -0.6895
vn -0.6895 -0.0000 -0.7242
vn -0.6532 -0.0000 -0.7572
vn -0.6152 -0.0000 -0.7883
vn -0.5758 -0.0000 -0.8176
vn -0.5350 -0.0000 -0.8449
vn -0.4929 -0.0000 -0.8701
vn -0.4496 -0.0000 -0.8932
vn -0.4052 -0.0000 -0.9142
vn -0.3599 -0.0000 -0.9330
vn -0.3137 -0.0000 -0.9495
vn -0.2667 -0.0000 -0.9638
vn -0.2191 -0.0000 -0.9757
vn -0.1710 -0.0000 -0.9853
vn -0.1224 -0.0000 -0.9925
vn -0.0000 1.0000 -0.0000
vn -0.0736 -0.0000 -0.9973
vn -0.0245 -0.0000 -0.9997
vn -0.0000 -1.0000 -0.0000
s 0
f 2//1 3//1 1//1
f 4//2 5//2 3//2
f 6//3 7//3 5//3
f 8//4 9//4 7//4
f 10//5 11//5 9//5
f 12//6 13//6 11//6
f 14//7 15//7 13//7
f 16//8 17//8 15//8
f 18//9 19//9 17//9
f 20//10 21//10 19//10
f 22//11 23//11 21//11
f 24//12 25//12 23//12
f 26//13 27//13 25//13
f 28//14 29//14 27//14
f 30//15 31//15 29//15
f 32//16 33//16 31//16
f 34//17 35//17 33//17
f 36//18 37//18 35//18
f 38//19 39//19 37//19
f 40//20 41//20 39//20
f 42//21 43//21 41//21
f 44//22 45//22 43//22
f 46//23 47//23 45//23
f 48//24 49//24 47//24
f 50//25 51//25 49//25
f 52//26 53//26 51//26
f 54//27 55//27 53//27
f 56//28 57//28 55//28
f 58//29 59//29 57//29
f 60//30 61//30 59//30
f 62//31 63//31 61//31
f 64//32 65//32 63//32
f 66//33 67//33 65//33
f 68//34 69//34 67//34
f 70//35 71//35 69//35
f 72//36 73//36 71//36
f 74//37 75//37 73//37
f 76//38 77//38 75//38
f 78//39 79//39 77//39
f 80//40 81//40 79//40
f 82//41 83//41 81//41
f 84//42 85//42 83//42
f 86//43 87//43 85//43
f 88//44 89//44 87//44
f 90//45 91//45 89//45
f 92//46 93//46 91//46
f 94//47 95//47 93//47
f 96//48 97//48 95//48
f 98//49 99//49 97//49
f 100//50 101//50 99//50
f 102//51 103//51 101//51
f 104//52 105//52 103//52
f 106//53 107//53 105//53
f 108//54 109//54 107//54
f 110//55 111//55 109//55
f 112//56 113//56 111//56
f 114//57 115//57 113//57
f 116//58 117//58 115//58
f 118//59 119//59 117//59
f 120//60 121//60 119//60
f 122//61 123//61 121//61
f 124//62 125//62 123//62
f 126//63 127//63 125//63
f 128//64 129//64 127//64
f 130//65 131//65 129//65
f 132//66 133//66 131//66
f 134//67 135//67 133//67
f 136//68 137//68 135//68
f 138//69 139//69 137//69
f 140//70 141//70 139//70
f 142//71 143//71 141//71
f 144//72 145//72 143//72
f 146//73 147//73 145//73
f 148//74 149//74 147//74
f 150//75 151//75 149//75
f 152//76 153//76 151//76
f 154//77 155//77 153//77
f 156//78 157//78 155//78
f 158//79 159//79 157//79
f 160//80 161//80 159//80
f 162//81 163//81 161//81
f 164//82 165//82 163//82
f 166//83 167//83 165//83
f 168//84 169//84 167//84
f 170//85 171//85 169//85
f 172//86 173//86 171//86
f 174//87 175//87 173//87
f 176//88 177//88 175//88
f 178//89 179//89 177//89
f 180//90 181//90 179//90
f 182//91 183//91 181//91
f 184//92 185//92 183//92
f 186//93 187//93 185//93
f 188//94 189//94 187//94
f 190//95 191//95 189//95
f 192//96 193//96 191//96
f 194//97 195//97 193//97
f 196//98 197//98 195//98
f 198//99 199//99 197//99
f 200//100 201//100 199//100
f 202//101 203//101 201//101
f 204//102 205//102 203//102
f 206//103 207//103 205//103
f 208//104 209//104 207//104
f 210//105 211//105 209//105
f 212//106 213//106 211//106
f 214//107 215//107 213//107
f 216//108 217//108 215//108
f 218//109 219//109 217//109
f 220//110 221//110 219//110
f 222//111 223//111 221//111
f 224//112 225//112 223//112
f 226//113 227//113 225//113
f 228//114 229//114 227//114
f 230//115 231//115 229//115
f 232//116 233//116 231//116
f 234//117 235//117 233//117
f 236//118 237//118 235//118
f 238//119 239//119 237//119
f 240//120 241//120 239//120
f 242//121 243//121 241//121
f 244//122 245//122 243//122
f 246//123 247//123 245//123
f 248//124 249//124 247//124
f 250//125 251//125 249//125
f 252//126 253//126 251//126
f 134//127 70//127 6//127
f 254//128 255//128 253//128
f 256//129 1//129 255//129
f 127//130 191//130 255//130
f 2//1 4//1 3//1
f 4//2 6//2 5//2
f 6//3 8//3 7//3
f 8//4 10//4 9//4
f 10//5 12//5 11//5
f 12//6 14//6 13//6
f 14//7 16//7 15//7
f 16//8 18//8 17//8
f 18//9 20//9 19//9
f 20//10 22//10 21//10
f 22//11 24//11 23//11
f 24//12 26//12 25//12
f 26//13 28//13 27//13
f 28//14 30//14 29//14
f 30//15 32//15 31//15
f 32//16 34//16 33//16
f 34//17 36//17 35//17
f 36//18 38//18 37//18
f 38//19 40//19 39//19
f 40//20 42//20 41//20
f 42//21 44//21 43//21
f 44//22 46//22 45//22
f 46//23 48//23 47//23
f 48//24 50//24 49//24
f 50//25 52//25 51//25
f 52//26 54//26 53//26
f 54//27 56//27 55//27
f 56//28 58//28 57//28
f 58//29 60//29 59//29
f 60//30 62//30 61//30
f 62//31 64//31 63//31
f 64//32 66//32 65//32
f 66//33 68//33 67//33
f 68//34 70//34 69//34
f 70//35 72//35 71//35
f 72//36 74//36 73//36
f 74//37 76//37 75//37
f 76//38 78//38 77//38
f 78//39 80//39 79//39
f 80//40 82//40 81//40
f 82//41 84//41 83//41
f 84//42 86//42 85//42
f 86//43 88//43 87//43
f 88//44 90//44 89//44
f 90//45 92//45 91//45
f 92//46 94//46 93//46
f 94//47 96//47 95//47
f 96//48 98//48 97//48
f 98//49 100//49 99//49
f 100//50 102//50 101//50
f 102//51 104//51 103//51
f 104//52 106//52 105//52
f 106//53 108//53 107//53
f 108//54 110//54 109//54
f 110//55 112//55 111//55
f 112//56 114//56 113//56
f 114//57 116//57 115//57
f 116//58 118//58 117//58
f 118//59 120//59 119//59
f 120//60 122//60 121//60
f 122//61 124//61 123//61
f 124//62 126//62 125//62
f 126//63 128//63 127//63
f 128//64 130//64 129//64
f 130//65 132//65 131//65
f 132//66 134//66 133//66
f 134//67 136//67 135//67
f 136//68 138//68 137//68
f 138//69 140//69 139//69
f 140//70 142//70 141//70
f 142//71 144//71 143//71
f 144//72 146//72 145//72
f 146//73 148//73 147//73
f 148//74 150//74 149//74
f 150//75 152//75 151//75
f 152//76 154//76 153//76
f 154//77 156//77 155//77
f 156//78 158//78 157//78
f 158//79 160//79 159//79
f 160//80 162//80 161//80
f 162//81 164//81 163//81
f 164//82 166//82 165//82
f 166//83 168//83 167//83
f 168//84 170//84 169//84
f 170//85 172//85 171//85
f 172//86 174//86 173//86
f 174//87 176//87 175//87
f 176//88 178//88 177//88
f 178//89 180//89 179//89
f 180//90 182//90 181//90
f 182//91 184//91 183//91
f 184//92 186//92 185//92
f 186//93 188//93 187//93
f 188//94 190//94 189//94
f 190//95 192//95 191//95
f 192//96 194//96 193//96
f 194//97 196//97 195//97
f 196//98 198//98 197//98
f 198//99 200//99 199//99
f 200//100 202//100 201//100
f 202//101 204//101 203//101
f 204//102 206//102 205//102
f 206//103 208//103 207//103
f 208//104 210//104 209//104
f 210//105 212//105 211//105
f 212//106 214//106 213//106
f 214//107 216//107 215//107
f 216//108 218//108 217//108
f 218//109 220//109 219//109
f 220//110 222//110 221//110
f 222//111 224//111 223//111
f 224//112 226//112 225//112
f 226//113 228//113 227//113
f 228//114 230//114 229//114
f 230//115 232//115 231//115
f 232//116 234//116 233//116
f 234//117 236//117 235//117
f 236//118 238//118 237//118
f 238//119 240//119 239//119
f 240//120 242//120 241//120
f 242//121 244//121 243//121
f 244//122 246//122 245//122
f 246//123 248//123 247//123
f 248//124 250//124 249//124
f 250//125 252//125 251//125
f 252//126 254//126 253//126
f 6//127 4//127 2//127
f 2//127 256//127 254//127
f 254//127 252//127 250//127
f 250//127 248//127 246//127
f 246//127 244//127 242//127
f 242//127 240//127 238//127
f 238//127 236//127 234//127
f 234//127 232//127 230//127
f 230//127 228//127 226//127
f 226//127 224//127 222//127
f 222//127 220//127 218//127
f 218//127 216//127 214//127
f 214//127 212//127 210//127
f 210//127 208//127 206//127
f 206//127 204//127 202//127
f 202//127 200//127 198//127
f 198//127 196//127 194//127
f 194//127 192//127 190//127
f 190//127 188//127 186//127
f 186//127 184//127 182//127
f 182//127 180//127 178//127
f 178//127 176//127 174//127
f 174//127 172//127 170//127
f 170//127 168//127 166//127
f 166//127 164//127 162//127
f 162//127 160//127 158//127
f 158//127 156//127 154//127
f 154//127 152//127 150//127
f 150//127 148//127 146//127
f 146//127 144//127 142//127
f 142//127 140//127 138//127
f 138//127 136//127 134//127
f 134//127 132//127 130//127
f 130//127 128//127 126//127
f 126//127 124//127 122//127
f 122//127 120//127 118//127
f 118//127 116//127 114//127
f 114//127 112//127 110//127
f 110//127 108//127 106//127
f 106//127 104//127 102//127
f 102//127 100//127 98//127
f 98//127 96//127 94//127
f 94//127 92//127 90//127
f 90//127 88//127 86//127
f 86//127 84//127 82//127
f 82//127 80//127 78//127
f 78//127 76//127 74//127
f 74//127 72//127 70//127
f 70//127 68//127 66//127
f 66//127 64//127 62//127
f 62//127 60//127 58//127
f 58//127 56//127 54//127
f 54//127 52//127 50//127
f 50//127 48//127 46//127
f 46//127 44//127 42//127
f 42//127 40//127 38//127
f 38//127 36//127 34//127
f 34//127 32//127 30//127
f 30//127 28//127 26//127
f 26//127 24//127 22//127
f 22//127 20//127 18//127
f 18//127 16//127 14//127
f 14//127 12//127 10//127
f 10//127 8//127 6//127
f 6//127 2//127 254//127
f 254//127 250//127 246//127
f 246//127 242//127 238//127
f 238//127 234//127 230//127
f 230//127 226//127 222//127
f 222//127 218//127 214//127
f 214//127 210//127 206//127
f 206//127 202//127 198//127
f 198//127 194//127 190//127
f 190//127 186//127 182//127
f 182//127 178//127 174//127
f 174//127 170//127 166//127
f 166//127 162//127 158//127
f 158//127 154//127 150//127
f 150//127 146//127 142//127
f 142//127 138//127 134//127
f 134//127 130//127 126//127
f 126//127 122//127 118//127
f 118//127 114//127 110//127
f 110//127 106//127 102//127
f 102//127 98//127 94//127
f 94//127 90//127 86//127
f 86//127 82//127 78//127
f 78//127 74//127 70//127
f 70//127 66//127 62//127
f 62//127 58//127 54//127
f 54//127 50//127 46//127
f 46//127 42//127 38//127
f 38//127 34//127 30//127
f 30//127 26//127 22//127
f 22//127 18//127 14//127
f 14//127 10//127 6//127
f 6//127 254//127 246//127
f 246//127 238//127 230//127
f 230//127 222//127 214//127
f 214//127 206//127 198//127
f 198//127 190//127 182//127
f 182//127 174//127 166//127
f 166//127 158//127 150//127
f 150//127 142//127 134//127
f 134//127 126//127 118//127
f 118//127 110//127 102//127
f 102//127 94//127 86//127
f 86//127 78//127 70//127
f 70//127 62//127 54//127
f 54//127 46//127 38//127
f 38//127 30//127 22//127
f 22//127 14//127 6//127
f 6//127 246//127 230//127
f 230//127 214//127 198//127
f 198//127 182//127 166//127
f 166//127 150//127 134//127
f 134//127 118//127 102//127
f 102//127 86//127 70//127
f 70//127 54//127 38//127
f 38//127 22//127 6//127
f 6//127 230//127 198//127
f 198//127 166//127 134//127
f 134//127 102//127 70//127
f 70//127 38//127 6//127
f 6//127 198//127 134//127
f 254//128 256//128 255//128
f 256//129 2//129 1//129
f 255//130 1//130 3//130
f 3//130 5//130 7//130
f 7//130 9//130 11//130
f 11//130 13//130 15//130
f 15//130 17//130 19//130
f 19//130 21//130 23//130
f 23//130 25//130 27//130
f 27//130 29//130 31//130
f 31//130 33//130 35//130
f 35//130 37//130 39//130
f 39//130 41//130 43//130
f 43//130 45//130 47//130
f 47//130 49//130 51//130
f 51//130 53//130 55//130
f 55//130 57//130 59//130
f 59//130 61//130 63//130
f 63//130 65//130 67//130
f 67//130 69//130 71//130
f 71//130 73//130 75//130
f 75//130 77//130 79//130
f 79//130 81//130 83//130
f 83//130 85//130 87//130
f 87//130 89//130 91//130
f 91//130 93//130 95//130
f 95//130 97//130 99//130
f 99//130 101//130 103//130
f 103//130 105//130 107//130
f 107//130 109//130 111//130
f 111//130 113//130 115//130
f 115//130 117//130 119//130
f 119//130 121//130 123//130
f 123//130 125//130 127//130
f 127//130 129//130 131//130
f 131//130 133//130 135//130
f 135//130 137//130 139//130
f 139//130 141//130 143//130
f 143//130 145//130 147//130
f 147//130 149//130 151//130
f 151//130 153//130 155//130
f 155//130 157//130 159//130
f 159//130 161//130 163//130
f 163//130 165//130 167//130
f 167//130 169//130 171//130
f 171//130 173//130 175//130
f 175//130 177//130 179//130
f 179//130 181//130 183//130
f 183//130 185//130 187//130
f 187//130 189//130 191//130
f 191//130 193//130 195//130
f 195//130 197//130 199//130
f 199//130 201//130 203//130
f 203//130 205//130 207//130
f 207//130 209//130 211//130
f 211//130 213//130 215//130
f 215//130 217//130 219//130
f 219//130 221//130 223//130
f 223//130 225//130 227//130
f 227//130 229//130 231//130
f 231//130 233//130 235//130
f 235//130 237//130 239//130
f 239//130 241//130 243//130
f 243//130 245//130 247//130
f 247//130 249//130 251//130
f 251//130 253//130 255//130
f 255//130 3//130 7//130
f 7//130 11//130 15//130
f 15//130 19//130 23//130
f 23//130 27//130 31//130
f 31//130 35//130 39//130
f 39//130 43//130 47//130
f 47//130 51//130 55//130
f 55//130 59//130 63//130
f 63//130 67//130 71//130
f 71//130 75//130 79//130
f 79//130 83//130 87//130
f 87//130 91//130 95//130
f 95//130 99//130 103//130
f 103//130 107//130 111//130
f 111//130 115//130 119//130
f 119//130 123//130 127//130
f 127//130 131//130 135//130
f 135//130 139//130 143//130
f 143//130 147//130 151//130
f 151//130 155//130 159//130
f 159//130 163//130 167//130
f 167//130 171//130 175//130
f 175//130 179//130 183//130
f 183//130 187//130 191//130
f 191//130 195//130 199//130
f 199//130 203//130 207//130
f 207//130 211//130 215//130
f 215//130 219//130 223//130
f 223//130 227//130 231//130
f 231//130 235//130 239//130
f 239//130 243//130 247//130
f 247//130 251//130 255//130
f 255//130 7//130 15//130
f 15//130 23//130 31//130
f 31//130 39//130 47//130
f 47//130 55//130 63//130
f 63//130 71//130 79//130
f 79//130 87//130 95//130
f 95//130 103//130 111//130
f 111//130 119//130 127//130
f 127//130 135//130 143//130
f 143//130 151//130 159//130
f 159//130 167//130 175//130
f 175//130 183//130 191//130
f 191//130 199//130 207//130
f 207//130 215//130 223//130
f 223//130 231//130 239//130
f 239//130 247//130 255//130
f 255//130 15//130 31//130
f 31//130 47//130 63//130
f 63//130 79//130 95//130
f 95//130 111//130 127//130
f 127//130 143//130 159//130
f 159//130 175//130 191//130
f 191//130 207//130 223//130
f 223//130 239//130 255//130
f 255//130 31//130 63//130
f 63//130 95//130 127//130
f 127//130 159//130 191//130
f 191//130 223//130 255//130
f 255//130 63//130 127//130
